<?xml version="1.0" encoding="UTF-8"?>
<svg id="Camada_2" data-name="Camada 2" xmlns="http://www.w3.org/2000/svg" viewBox="0 0 459.58 29.65">
  <defs>
    <style>
      .cls-1 {
        fill: #bc7a9e;
      }
    </style>
  </defs>
  <g id="Camada_1-2" data-name="Camada 1">
    <g>
      <path class="cls-1" d="M4.37,25.12h7.29v4.12H0V.41h4.37v24.71Z"/>
      <path class="cls-1" d="M69.6,29.24h-4.45l-.95-6.55h-4.82l-.95,6.55h-4.37L59.05.41h5.56l4.98,28.83ZM61.73,6.59l-1.77,12.15h3.67l-1.77-12.15h-.12Z"/>
      <path class="cls-1" d="M126.96,7.7v.54c0,3.21-.95,5.11-3.25,5.89v.08c2.72.82,3.87,2.96,3.87,6.75v.99c0,4.74-2.55,7.29-7.25,7.29h-6.42V.41h6.09c4.53,0,6.96,2.55,6.96,7.29ZM118.27,4.45v7.87h1.36c2.1,0,2.97-1.07,2.97-3.5v-.95c0-2.35-.86-3.42-2.76-3.42h-1.56ZM118.27,16.35v8.85h1.89c2.1,0,3.05-1.11,3.05-3.54v-1.61c0-2.55-.95-3.71-3.25-3.71h-1.69Z"/>
      <path class="cls-1" d="M176.63,29.24h-4.37V.41h4.37v28.83Z"/>
      <path class="cls-1" d="M236.13,7.29v15.07c0,4.53-2.68,7.29-7.04,7.29s-7.04-2.76-7.04-7.29V7.29c0-4.53,2.68-7.29,7.04-7.29s7.04,2.76,7.04,7.29ZM226.41,7.33v14.99c0,2.14.95,3.29,2.68,3.29s2.68-1.15,2.68-3.29V7.33c0-2.14-.95-3.29-2.68-3.29s-2.68,1.15-2.68,3.29Z"/>
      <path class="cls-1" d="M294.61,6.92v2.59l-4.2.21v-2.35c0-2.31-.86-3.34-2.47-3.34s-2.47,1.03-2.47,2.92v15.73c0,1.89.86,2.92,2.47,2.92s2.47-1.03,2.47-3.34v-3.21l4.2.21v3.46c0,4.37-2.51,6.92-6.8,6.92s-6.71-2.55-6.71-6.92V6.92c0-4.37,2.47-6.92,6.71-6.92s6.8,2.55,6.8,6.92Z"/>
      <path class="cls-1" d="M343.86,25.12h7.29v4.12h-11.65V.41h4.37v24.71Z"/>
      <path class="cls-1" d="M399.5,29.24h-4.37V.41h4.37v28.83Z"/>
      <path class="cls-1" d="M459.58,29.24h-4.28l-5.72-19.11h-.08v19.11h-4.12V.41h4.86l5.15,17.17h.08V.41h4.12v28.83Z"/>
    </g>
  </g>
</svg>